<svg width="271" height="58" viewBox="0 0 271 58" fill="none" xmlns="http://www.w3.org/2000/svg">
<path d="M261 0H10C4.47715 0 0 4.47715 0 10V48C0 53.5228 4.47715 58 9.99999 58H261C266.523 58 271 53.5229 271 48V10C271 4.47715 266.523 0 261 0Z" fill="#F6F1DE"/>
<path fill-rule="evenodd" clip-rule="evenodd" d="M253.729 31.6233C253.729 34.8319 255.252 37.0755 258.296 38.354L258.502 38.4378C258.819 38.5634 258.98 38.9408 258.863 39.2808C258.82 39.4083 258.74 39.5179 258.636 39.5947C257.559 40.3857 257.829 40.5157 255.434 40.6411C254.6 44.7281 251.128 44.4 249.023 44.4H146.865C142.278 44.4 138.559 41.154 138.559 37.15V29.6664C138.559 25.6623 142.278 22.4164 146.865 22.4164H245.355C249.851 22.4164 253.529 25.5375 253.658 29.4593L253.729 31.6233Z" fill="black"/>
<path fill-rule="evenodd" clip-rule="evenodd" d="M255.661 31.4323C255.661 34.6904 256.815 36.9687 259.121 38.2669L259.276 38.352C259.516 38.4796 259.639 38.8628 259.549 39.208C259.516 39.3375 259.456 39.4489 259.377 39.5268C258.562 40.3299 257.248 40.7951 255.434 40.9224C254.911 42.9565 253.552 44.4062 251.958 44.4062H146.402C141.815 44.4062 138.096 41.1603 138.096 37.1562V29C138.096 24.9959 141.815 21.75 146.402 21.75H247.295C251.817 21.75 255.507 24.9057 255.601 28.8508L255.661 31.4323Z" fill="#DCF7C5"/>
<path fill-rule="evenodd" clip-rule="evenodd" d="M15.2209 28.6869C15.2209 30.8138 13.9496 32.301 11.4071 33.1484L11.2358 33.204C10.9714 33.2873 10.8364 33.5375 10.9341 33.7629C10.9707 33.8473 11.0373 33.92 11.1245 33.971C12.0228 34.4952 13.0325 34.7042 15.0328 34.7873C15.6085 36.1152 17.1077 37.1562 19.3031 37.1562H123.04C127.627 37.1562 131.347 33.9103 131.347 29.9062V22.2031C131.347 18.199 127.627 14.9531 123.04 14.9531H23.6472C19.1114 14.9531 15.4143 18.1288 15.3418 22.0872L15.2209 28.6869Z" fill="#DDDDE9"/>
<path fill-rule="evenodd" clip-rule="evenodd" d="M14.7768 28.334C14.7768 30.5495 13.4834 32.0986 10.8968 32.9814L10.7225 33.0393C10.4534 33.1262 10.3161 33.3867 10.4155 33.6214C10.4528 33.7095 10.5204 33.7852 10.6092 33.8382C11.5231 34.3844 12.9977 34.7007 15.0328 34.7873C15.6184 36.1704 17.1424 37.1562 18.93 37.1562H123.559C128.147 37.1562 131.866 33.9103 131.866 29.9062V21.75C131.866 17.7459 128.147 14.5 123.559 14.5H23.2062C18.671 14.5 14.974 17.675 14.9008 21.6329L14.7768 28.334Z" fill="#DFDFDF"/>
</svg>
