<svg width="271" height="58" viewBox="0 0 271 58" fill="none" xmlns="http://www.w3.org/2000/svg">
<rect width="271" height="58" rx="10" fill="black"/>
<g filter="url(#filter0_f)">
<path fill-rule="evenodd" clip-rule="evenodd" d="M11.2398 26.8744C11.2398 29.0013 9.94881 30.4885 7.36678 31.336L7.19273 31.3915C6.92429 31.4748 6.78713 31.725 6.88637 31.9503C6.92358 32.0348 6.99113 32.1076 7.07969 32.1585C7.99203 32.6827 9.01743 32.8917 11.0489 32.9748C11.6335 34.3026 13.156 35.3438 15.3856 35.3438H121.173C125.591 35.3438 129.173 31.762 129.173 27.3438V21.1406C129.173 16.7223 125.591 13.1406 121.173 13.1406L19.3479 13.1406C14.9877 13.1406 11.4304 16.6323 11.3493 20.9918L11.2398 26.8744Z" fill="#2E2E2E"/>
</g>
<path fill-rule="evenodd" clip-rule="evenodd" d="M10.7889 26.5215C10.7889 28.737 9.4754 30.2862 6.84846 31.169L6.67139 31.2268C6.39828 31.3136 6.25874 31.5742 6.3597 31.809C6.39756 31.897 6.46629 31.9727 6.55638 32.0257C7.4846 32.5719 8.9821 32.8882 11.0489 32.9748C11.6436 34.3579 13.1913 35.3438 15.0068 35.3438H121.7C126.119 35.3438 129.7 31.762 129.7 27.3438L129.7 20.6875C129.7 16.2692 126.119 12.6875 121.7 12.6875L18.9 12.6875C14.5403 12.6875 10.9833 16.1782 10.9014 20.5372L10.7889 26.5215Z" fill="#2E2E2E"/>
<g filter="url(#filter1_f)">
<path fill-rule="evenodd" clip-rule="evenodd" d="M259.787 33.4358C259.787 36.6444 261.333 38.888 264.426 40.1664L264.634 40.2502C264.956 40.3759 265.12 40.7534 265.001 41.0933C264.957 41.2208 264.876 41.3305 264.77 41.4072C263.677 42.1981 263.951 42.3282 261.518 42.4535C260.671 46.5406 257.146 46.2125 255.008 46.2125H150.824C146.406 46.2125 142.824 42.6307 142.824 38.2125V32.2289C142.824 27.8106 146.406 24.2289 150.824 24.2289H251.743C256.057 24.2289 259.595 27.6506 259.738 31.963L259.787 33.4358Z" fill="#5C5C5C"/>
</g>
<path fill-rule="evenodd" clip-rule="evenodd" d="M261.749 33.2448C261.749 36.503 262.92 38.7811 265.263 40.0794L265.42 40.1645C265.664 40.2921 265.788 40.6753 265.698 41.0205C265.665 41.15 265.603 41.2614 265.523 41.3393C264.695 42.1424 263.36 42.6077 261.518 42.735C260.987 44.769 259.608 46.2188 257.989 46.2188H150.354C145.936 46.2188 142.354 42.637 142.354 38.2188V31.5625C142.354 27.1442 145.936 23.5625 150.354 23.5625L253.707 23.5625C258.051 23.5625 261.601 27.0286 261.705 31.371L261.749 33.2448Z" fill="#5C5C5C"/>
<defs>
<filter id="filter0_f" x="5.22311" y="11.5097" width="125.581" height="25.4651" filterUnits="userSpaceOnUse" color-interpolation-filters="sRGB">
<feFlood flood-opacity="0" result="BackgroundImageFix"/>
<feBlend mode="normal" in="SourceGraphic" in2="BackgroundImageFix" result="shape"/>
<feGaussianBlur stdDeviation="0.815485" result="effect1_foregroundBlur"/>
</filter>
<filter id="filter1_f" x="141.193" y="22.5979" width="125.478" height="25.2518" filterUnits="userSpaceOnUse" color-interpolation-filters="sRGB">
<feFlood flood-opacity="0" result="BackgroundImageFix"/>
<feBlend mode="normal" in="SourceGraphic" in2="BackgroundImageFix" result="shape"/>
<feGaussianBlur stdDeviation="0.815485" result="effect1_foregroundBlur"/>
</filter>
</defs>
</svg>
