<svg width="271" height="58" viewBox="0 0 271 58" fill="none" xmlns="http://www.w3.org/2000/svg">
<path d="M261 0H10C4.47715 0 0 4.47715 0 10V48C0 53.5228 4.47715 58 9.99999 58H261C266.523 58 271 53.5229 271 48V10C271 4.47715 266.523 0 261 0Z" fill="white"/>
<g filter="url(#filter0_f)">
<path fill-rule="evenodd" clip-rule="evenodd" d="M15.6592 26.6545C15.6592 29.0014 14.4349 30.6425 11.9862 31.5776L11.8212 31.6389C11.5666 31.7308 11.4365 32.0069 11.5306 32.2556C11.5659 32.3488 11.63 32.429 11.714 32.4852C12.5792 33.0637 13.5516 33.2943 15.4781 33.386C16.0325 34.8512 17.4764 36 19.5908 36H119.5C123.918 36 127.5 32.4183 127.5 28V19.5C127.5 15.0817 123.918 11.5 119.5 11.5H23.7746C19.4062 11.5 15.8455 15.0042 15.7757 19.3721L15.6592 26.6545Z" fill="#DDDDE9"/>
</g>
<path fill-rule="evenodd" clip-rule="evenodd" d="M15.2315 26.2651C15.2315 28.7098 13.9859 30.4192 11.4947 31.3933L11.3268 31.4572C11.0677 31.553 10.9354 31.8405 11.0312 32.0995C11.0671 32.1967 11.1322 32.2802 11.2177 32.3387C12.0979 32.9414 13.5181 33.2904 15.4781 33.386C16.0421 34.9122 17.5098 36 19.2315 36H120C124.418 36 128 32.4183 128 28V19C128 14.5817 124.418 11 120 11H23.3499C18.982 11 15.4215 14.5035 15.351 18.8708L15.2315 26.2651Z" fill="#EAEBED"/>
<path fill-rule="evenodd" clip-rule="evenodd" d="M259.227 32.6839C259.227 35.9426 260.338 38.2212 262.559 39.5196L262.709 39.6047C262.94 39.7323 263.058 40.1156 262.972 40.4609C262.94 40.5904 262.882 40.7018 262.806 40.7798C262.021 41.583 260.755 42.0483 259.008 42.1756C258.505 44.21 257.196 45.66 255.661 45.66H154C149.582 45.66 146 42.4135 146 38.4088V30.2512C146 26.2465 149.582 23 154 23H251.17C255.525 23 259.079 26.1563 259.169 30.102L259.227 32.6839Z" fill="#4389F9"/>
<defs>
<filter id="filter0_f" x="9.86901" y="9.86903" width="119.262" height="27.7619" filterUnits="userSpaceOnUse" color-interpolation-filters="sRGB">
<feFlood flood-opacity="0" result="BackgroundImageFix"/>
<feBlend mode="normal" in="SourceGraphic" in2="BackgroundImageFix" result="shape"/>
<feGaussianBlur stdDeviation="0.815485" result="effect1_foregroundBlur"/>
</filter>
</defs>
</svg>
